# xmcd
#
# Track frame offsets:
#	150
#	18562
#	38340
#	58265
#	73502
#	91575
#	111730
#	129907
#	147732
#	164780
#	187577
#	207877
#	229585
#	249137
#	266375
#	283877
#
# Disc length: 4015 seconds
#
# Revision: 4
# Processed by: cddbd v1.5PL3 Copyright (c) Steve Scherf et al.
# Submitted via: CDex 1.50Beta5
#
DISCID=e10fad10
DTITLE=川中美幸 - 2000年全曲集
DYEAR=1999
DGENRE=Folk
TTITLE0=君影草
TTITLE1=二輪草
TTITLE2=麗人麗歌
TTITLE3=遣らずの雨
TTITLE4=女泣き砂日本海
TTITLE5=北山しぐれ
TTITLE6=逢えるじゃないかまたあした
TTITLE7=越前岬
TTITLE8=ふたり酒
TTITLE9=恋歌ふたたび
TTITLE10=ちょうちんの花
TTITLE11=豊後水道
TTITLE12=忍路海岸わかれ雪
TTITLE13=男じゃないか
TTITLE14=あなたひとすじ
TTITLE15=今夜は乾杯
EXTD=
EXTT0=
EXTT1=
EXTT2=
EXTT3=
EXTT4=
EXTT5=
EXTT6=
EXTT7=
EXTT8=
EXTT9=
EXTT10=
EXTT11=
EXTT12=
EXTT13=
EXTT14=
EXTT15=
PLAYORDER=
